<svg xmlns="http://www.w3.org/2000/svg" viewBox="0 0 271 489"><path d="M135.151 93.521c25.809 0 46.744-20.936 46.744-46.761C181.896 20.935 160.96 0 135.151 0 109.325 0 88.39 20.935 88.39 46.76c.001 25.825 20.935 46.761 46.761 46.761zm131.462 145.91l-74.616-115.109c-5.117-7.897-13.672-12.895-23.133-13.057h-67.443c-9.344.065-18.014 5.159-23.133 13.057L3.673 239.431a21.261 21.261 0 00-.844 21.707 21.268 21.268 0 0018.676 11.102 21.251 21.251 0 0017.834-9.692l26.416-40.744-18.32 96.158a11.86 11.86 0 002.518 9.795 11.85 11.85 0 009.149 4.307H72.81v130.895c0 13.991 11.338 25.329 25.328 25.329 13.984 0 25.321-11.338 25.321-25.321V332.063h23.376v130.895c0 13.983 11.338 25.322 25.32 25.322 13.984 0 25.321-11.339 25.321-25.322V332.063h13.708a11.84 11.84 0 009.148-4.307 11.86 11.86 0 002.521-9.795l-18.323-96.166 26.415 40.752a21.251 21.251 0 0017.834 9.692 21.27 21.27 0 0018.677-11.102 21.255 21.255 0 00-.843-21.706z"/></svg>