<svg width="949" height="264" viewBox="0 0 949 264" xmlns="http://www.w3.org/2000/svg"><g fill-rule="nonzero" fill="none"><path d="M810.4 167.3V97H755v70.3c0 24.7 13.2 47.6 34.7 60l62.3 36v-64l-34.6-20c-4.4-2.5-7-7-7-12" fill="#C79B65"/><path d="M851.9 235.6l62.4-36c21.4-12.4 34.7-35.3 34.7-60V0h-97v55.4h41.5v84.1c0 4.9-2.6 9.5-6.9 12l-34.6 20v64.1h-.1z" fill="#E84B37"/><path fill="#FFF" d="M851.9 0L755 97h96.9z"/><g fill="#FFF"><path d="M113.815 191.4c14 0 23.5-10.2 23.5-23.6 0-13.6-9.5-24-23.5-24-13.7 0-23.3 10.3-23.3 24 0 13.4 9.5 23.6 23.3 23.6m0-60.3c21.7 0 37.1 15.6 37.1 36.7 0 20.8-15.4 36.3-37.1 36.3-21.5 0-37-15.5-37-36.3 0-21 15.5-36.7 37-36.7M426.315 142.7c12.5 0 19 8.1 20.1 18.7h-40c2-11 9.6-18.7 19.9-18.7m32.8 29.5c.1-1.4.2-2.9.2-4.3 0-21.1-10.9-36.7-33.7-36.7-19.5 0-33.6 15.6-33.6 36.7 0 1.5.1 2.9.2 4.3 1.6 18.1 13.2 32 37.4 32 11.7 0 21.6-3.6 28.8-9.4l-5.4-9.9c-5.3 4-13.4 7.7-23 7.7-15.1 0-22.4-8.2-23.8-20.3h.1l52.8-.1zM519.715 133v28.4h-37.1V133h-13.8v69.3h13.8v-30.2h37.1v30.2h13.8V133zM606.215 133h-63.1v12.3h24.6v57h13.8v-57h24.7zM680.315 133h13.8v69.3h-13.8zM190.615 165.9v-.6s1.3-.4 2.4-1.7c1.2-1.3 26.4-30.5 26.4-30.5h-15.5l-24.3 28.4h-5.5V133h-13.8v69.3h13.8v-30.2h6.3l26.3 30.2h17.2s-29.5-33.2-30.7-34.6c-1.2-1.4-2.6-1.8-2.6-1.8M637.715 191.9c-4.3 0-8.2-.3-8.2-.3v-25s3-.8 8.3-.8c11.5 0 16.6 4.5 16.6 12.8.1 8.1-4.5 13.3-16.7 13.3m2.5-37.7c-6.4 0-10.7.8-10.7.8v-22h-13.8v69.3s11.3 1.1 23.1 1.1c21.7 0 28.8-13.2 28.8-25.4 0-12.3-6.4-23.8-27.4-23.8M34.415 191.4c-13.9 0-21.3-10.2-21-23.6.3-13.6 8.2-24 22.1-24 7.7 0 18 7 18 19.7v19.1c-4.3 5.5-11 8.8-19.1 8.8m19.7-58.4l-.4 8.7h-.9c-4.4-6.5-13.2-10.6-20.1-10.6-20.2 0-32.2 15.6-32.7 36.7-.5 20.8 11.7 36.3 31.9 36.3 9.3 0 15-2.6 20.7-9.3h.9v6.2c0 13.4-9.3 18.7-19.8 18.7-9.7 0-17.2-3.6-21.8-6.4l-4.5 11.4c4.4 2.3 12.6 7.2 26.3 7.2 19.4 0 33.6-11.5 33.6-33.7V133h-13.2zM278.615 133v50.2c-4.1 5.1-10.3 8.2-18.1 8.2-12.7 0-18.5-10.2-18.1-23.6V133h-13.4v34.8c-.5 20.8 7.8 36.3 28 36.3 9.2 0 15.5-2.7 20.7-9.3h.9v6.2c0 13.4-9.3 18.7-19.8 18.7-9.7 0-17.2-3.6-21.8-6.4l-4.5 11.4c4.4 2.3 12.6 7.2 26.3 7.2 19.4 0 33.6-11.5 33.6-33.7V133h-13.8zM369.415 133s-22.8 32.1-23.5 33c-.7.9-.9 1.9-.9 1.9h-.5s-.3-.9-1-1.9c-.7-1-25.2-33-25.2-33h-13v69.3h13.8v-44.2c0-3.1-.6-4.8-.6-4.8h.6l25.4 34.1h.6l23.5-34.1h.7s-.7 1.8-.7 4.8v44.2h13.8V133h-13zM622.815 103.1V33.8h23.2v32.3c0 2.4-.5 5-.5 5h1l25.3-37.3h19.7v69.3h-20.7V70.6c0-2.3.5-4.6.5-4.6h-1l-25.3 37.1h-22.2zM574.515 83.4c8.5 0 14.1-6.6 14.1-14.8 0-8.4-5.6-15-14.1-15-8.2 0-14.1 6.6-14.1 15 0 8.2 5.9 14.8 14.1 14.8m0-51.4c22.1 0 38.6 15.6 38.6 36.6 0 20.8-16.5 36.4-38.6 36.4-21.9 0-38.4-15.6-38.4-36.4 0-20.9 16.5-36.6 38.4-36.6M508.315 33.9s-19.4 25.2-20.2 26.2c-.9 1.2-1 1.8-1 1.8h-1s-.2-.7-1.1-1.8c-1.4-1.7-21.5-26.2-21.5-26.2h-18.3v69.3h22.4V74c0-3.1-.5-5-.5-5h1l18 20.7h1l16.7-20.7h1s-.5 1.9-.5 5v29.1h22.3V33.8h-18.3v.1z"/></g></g></svg>
