<svg><defs/><symbol id="edit" viewBox="0 0 395 396"><path d="M153.522 38.5c6.904 0 12.5 5.596 12.5 12.5s-5.596 12.5-12.5 12.5H63c-20.71 0-37.5 16.79-37.5 37.5v232c0 20.71 16.79 37.5 37.5 37.5h250c20.71 0 37.5-16.79 37.5-37.5v-90.902c0-6.903 5.596-12.5 12.5-12.5s12.5 5.597 12.5 12.5V333c0 34.518-27.982 62.5-62.5 62.5H63C28.482 395.5.5 367.518.5 333V101C.5 66.482 28.482 38.5 63 38.5h90.522z"/><path d="M370.558 13.03c-17.255-17.373-45.229-17.373-62.483 0L132.912 189.393a9.898 9.898 0 00-2.52 4.352l-23.034 83.729a9.93 9.93 0 002.516 9.63 9.78 9.78 0 009.565 2.538l83.16-23.197a9.8 9.8 0 004.322-2.537L382.079 87.541c17.228-17.384 17.228-45.527 0-62.911l-11.52-11.6zM154.305 195.818L297.662 51.475l46.234 46.55L200.535 242.37l-46.23-46.55zm-9.235 18.66l36.937 37.193-51.093 14.253 14.156-51.447zM357.783 84.046l-46.237-46.555 10.416-10.484c9.584-9.65 25.125-9.65 34.709 0l11.525 11.6c9.569 9.662 9.569 25.297 0 34.955l-10.413 10.484z"/></symbol><symbol id="gender-female" viewBox="0 0 271 489"><path d="M135.151 93.521c25.809 0 46.744-20.936 46.744-46.761C181.896 20.935 160.96 0 135.151 0 109.325 0 88.39 20.935 88.39 46.76c.001 25.825 20.935 46.761 46.761 46.761zm131.462 145.91l-74.616-115.109c-5.117-7.897-13.672-12.895-23.133-13.057h-67.443c-9.344.065-18.014 5.159-23.133 13.057L3.673 239.431a21.261 21.261 0 00-.844 21.707 21.268 21.268 0 0018.676 11.102 21.251 21.251 0 0017.834-9.692l26.416-40.744-18.32 96.158a11.86 11.86 0 002.518 9.795 11.85 11.85 0 009.149 4.307H72.81v130.895c0 13.991 11.338 25.329 25.328 25.329 13.984 0 25.321-11.338 25.321-25.321V332.063h23.376v130.895c0 13.983 11.338 25.322 25.32 25.322 13.984 0 25.321-11.339 25.321-25.322V332.063h13.708a11.84 11.84 0 009.148-4.307 11.86 11.86 0 002.521-9.795l-18.323-96.166 26.415 40.752a21.251 21.251 0 0017.834 9.692 21.27 21.27 0 0018.677-11.102 21.255 21.255 0 00-.843-21.706z"/></symbol><symbol id="gender-male" viewBox="0 0 249 479"><path d="M124.415 91.71c25.313 0 45.838-20.533 45.838-45.854C170.252 20.526 149.728 0 124.415 0 99.094 0 78.56 20.526 78.56 45.855c-.001 25.322 20.533 45.855 45.855 45.855zm122.116 157.154L195.425 131.66c-5.15-11.818-15.991-19.66-28.424-21.771-1.881-.496-83.293-.504-85.238.017-12.416 2.117-23.234 9.959-28.375 21.762l-51.1 117.188a22.774 22.774 0 001.827 21.564 22.761 22.761 0 0039.903-3.369l19.258-44.161v231.101c0 13.716 11.117 24.832 24.833 24.832 13.724 0 24.84-11.116 24.84-24.832V298.104h22.929v155.887c0 13.716 11.117 24.832 24.832 24.832 13.707 0 24.825-11.116 24.825-24.824V222.874l19.267 44.186a22.758 22.758 0 0020.865 13.66 22.747 22.747 0 0019.037-10.29 22.752 22.752 0 001.827-21.566z"/></symbol><symbol id="remove" viewBox="0 0 50 50"><path d="M25 50C11.214 50 0 38.786 0 25S11.214 0 25 0s25 11.214 25 25-11.214 25-25 25zm0-46.875C12.938 3.125 3.125 12.938 3.125 25S12.938 46.875 25 46.875 46.875 37.062 46.875 25 37.062 3.125 25 3.125z"/><path d="M17.267 34.296a1.563 1.563 0 01-1.104-2.668l15.468-15.47a1.563 1.563 0 012.21 2.21l-15.468 15.47a1.564 1.564 0 01-1.106.458z"/><path d="M32.733 34.296c-.4 0-.8-.152-1.104-.458L16.161 18.37a1.562 1.562 0 112.21-2.21l15.468 15.468a1.562 1.562 0 01-1.106 2.667z"/></symbol></svg>